<svg width="1340" height="308" viewBox="0 0 1340 308" fill="none" xmlns="http://www.w3.org/2000/svg">
<path d="M1001.11 128.6H973.98L953.36 88.73H931.99V128.6H908.34V22.49H959.58C982.32 22.49 998.08 34.31 998.08 55.23C998.08 70.39 987.92 80.24 977.01 84.49L1001.11 128.6ZM931.98 69.18H958.51C967.61 69.18 974.28 63.12 974.28 55.23C974.28 46.74 968.52 41.89 958.06 41.89H931.99V69.18H931.98Z" fill="#E5EEFF"/>
<path d="M430.13 128.6L396 22H421.59L442.92 97.69L464.26 22H489.84L455.71 128.6H430.13Z" fill="#E5EEFF"/>
<path d="M548.52 128.6L529.02 57.48L509.25 128.6H483.82L514.67 22H539.5L559.49 92.82L579.48 22H604.3L635.16 128.6H609.72L589.96 57.48L570.45 128.6H548.52Z" fill="#E5EEFF"/>
<path d="M649.32 128.6V22.49H672.97V109.2H723.9V128.6H649.32Z" fill="#E5EEFF"/>
<path d="M740.89 128.6V85.55L700.11 22.49H728.15L752.71 63.27L777.57 22.49H805.46L764.53 85.55V128.6H740.89Z" fill="#E5EEFF"/>
<path d="M896.99 128.6H869.4L864.7 122.84C856.21 127.84 846.36 130.57 836.2 130.57C812.55 130.57 798.76 118.59 798.76 101.16C798.76 86 810.58 74.93 819.53 68.72C813.62 61.29 809.22 54.77 809.22 46.59C809.22 30.82 822.56 20.36 839.24 20.36C852.88 20.36 863.49 24.3 873.8 36.73L858.64 49.62C852.73 41.59 847.27 38.55 841.81 38.55C836.5 38.55 833.02 41.58 833.02 46.58C833.02 52.64 839.84 59.92 842.57 63.25L868.19 94.02C871.98 87.8 874.25 80.68 874.71 73.1H894.27C893.82 86.89 888.81 99.33 880.78 109.18L896.99 128.6ZM853.03 108.74L830.29 81.61C825.59 86.31 822.56 91.92 822.56 98.29C822.56 106.78 829.23 112.39 838.78 112.39C843.79 112.38 848.64 111.17 853.03 108.74Z" fill="#E5EEFF"/>
<path d="M1131.95 285.74H1104.82L1084.2 245.87H1062.83V285.74H1039.18V179.63H1090.42C1113.16 179.63 1128.92 191.45 1128.92 212.37C1128.92 227.53 1118.76 237.38 1107.85 241.63L1131.95 285.74ZM1062.83 226.32H1089.36C1098.46 226.32 1105.13 220.26 1105.13 212.37C1105.13 203.88 1099.37 199.03 1088.91 199.03H1062.84V226.32H1062.83Z" fill="#E5EEFF"/>
<path d="M1339.95 179.38H1258.23V200.55H1339.95V179.38Z" fill="#E5EEFF"/>
<path d="M1339.95 222.09H1258.23V243.26H1339.95V222.09Z" fill="#E5EEFF"/>
<path d="M1339.95 264.82H1258.23V285.99H1339.95V264.82Z" fill="#E5EEFF"/>
<path d="M1017.65 179.38H935.93V200.55H1017.65V179.38Z" fill="#E5EEFF"/>
<path d="M1017.65 222.09H935.93V243.26H1017.65V222.09Z" fill="#E5EEFF"/>
<path d="M1017.65 264.82H935.93V285.99H1017.65V264.82Z" fill="#E5EEFF"/>
<path d="M393.24 232.53C393.24 204.49 412.19 177.5 448.42 177.5C476.77 177.5 491.02 193.11 496.47 207.06L476.01 214.94C471.31 203.72 461.46 196.9 448.12 196.9C428.72 196.9 417.04 212.82 417.04 232.07C417.04 253.9 429.47 268.3 447.51 268.3C460.55 268.3 471.01 260.42 476.31 246.77L496.93 252.68C490.56 274.36 472.22 287.85 447.36 287.85C411.59 287.86 393.24 261.64 393.24 232.53Z" fill="#E5EEFF"/>
<path d="M1138.14 232.53C1138.14 204.49 1157.09 177.5 1193.32 177.5C1221.67 177.5 1235.92 193.11 1241.37 207.06L1220.91 214.94C1216.21 203.72 1206.36 196.9 1193.02 196.9C1173.62 196.9 1161.94 212.82 1161.94 232.07C1161.94 253.9 1174.37 268.3 1192.41 268.3C1205.45 268.3 1215.91 260.42 1221.21 246.77L1241.83 252.68C1235.46 274.36 1217.12 287.85 1192.26 287.85C1156.48 287.86 1138.14 261.64 1138.14 232.53Z" fill="#E5EEFF"/>
<path d="M505.06 232.68C505.06 199.18 528.1 177.5 561.3 177.5C595.41 177.5 617.24 200.24 617.24 232.53C617.24 263 598.29 287.86 561.15 287.86C525.82 287.86 505.06 264.06 505.06 232.68ZM593.43 232.53C593.43 210.85 581 197.06 561.29 197.06C540.98 197.06 529 211.76 529 232.53C529 251.93 539.61 268.31 561.29 268.31C583.58 268.31 593.43 251.94 593.43 232.53Z" fill="#E5EEFF"/>
<path d="M684.46 285.99L664.96 214.87L645.19 285.99H619.76L650.62 179.38H675.44L695.43 250.2L715.42 179.38H740.24L771.1 285.99H745.67L725.9 214.87L706.39 285.99H684.46Z" fill="#E5EEFF"/>
<path d="M835.81 285.99L816.3 214.87L796.53 285.99H771.1L801.96 179.38H826.78L846.77 250.2L866.76 179.38H891.58L922.44 285.99H897.01L877.24 214.87L857.74 285.99H835.81Z" fill="#E5EEFF"/>
<path d="M242 0H198L154 44L110 0H66L154 88L242 0Z" fill="#E5EEFF"/>
<path d="M66 308H110L154 264L198 308H242L154 220L66 308Z" fill="#E5EEFF"/>
<path d="M286 0L154 132L22 0H0V22L132 154L0 286V308H22L154 176L286 308H308V286L176 154L308 22V0H286Z" fill="#E5EEFF"/>
<path d="M0 66V110L44 154L0 198V242L88 154L0 66Z" fill="#E5EEFF"/>
<path d="M308 242V198L264 154L308 110V66L220 154L308 242Z" fill="#E5EEFF"/>
</svg>
