<svg width="308" height="308" viewBox="0 0 308 308" fill="none" xmlns="http://www.w3.org/2000/svg">
<path d="M242 0H198L154 44L110 0H66L154 88L242 0Z" fill="#E5EEFF"/>
<path d="M66 308H110L154 264L198 308H242L154 220L66 308Z" fill="#E5EEFF"/>
<path d="M286 0L154 132L22 0H0V22L132 154L0 286V308H22L154 176L286 308H308V286L176 154L308 22V0H286Z" fill="#E5EEFF"/>
<path d="M0 66V110L44 154L0 198V242L88 154L0 66Z" fill="#E5EEFF"/>
<path d="M308 242V198L264 154L308 110V66L220 154L308 242Z" fill="#E5EEFF"/>
</svg>
